<svg width="30" height="33" viewBox="0 0 30 33" fill="none" xmlns="http://www.w3.org/2000/svg">
<path d="M29.8 26.355L29.46 26.055C28.4954 25.1956 27.6512 24.2101 26.95 23.125C26.1842 21.6275 25.7252 19.9922 25.6 18.315V13.375C25.6066 10.7406 24.651 8.19447 22.9127 6.21497C21.1745 4.23547 18.7732 2.95886 16.16 2.625V1.335C16.16 0.980936 16.0193 0.641374 15.769 0.391013C15.5186 0.140651 15.1791 0 14.825 0C14.4709 0 14.1314 0.140651 13.881 0.391013C13.6307 0.641374 13.49 0.980936 13.49 1.335V2.645C10.9003 3.00293 8.52797 4.28726 6.81253 6.26011C5.09709 8.23296 4.15473 10.7606 4.16 13.375V18.315C4.03475 19.9922 3.57578 21.6275 2.81 23.125C2.12088 24.2073 1.29019 25.1927 0.34 26.055L0 26.355V29.175H29.8V26.355Z" fill="#124A80"/>
<path d="M12.27 30.2251C12.3577 30.859 12.6718 31.4397 13.1543 31.8601C13.6368 32.2804 14.2551 32.512 14.895 32.512C15.5349 32.512 16.1532 32.2804 16.6357 31.8601C17.1182 31.4397 17.4323 30.859 17.52 30.2251H12.27Z" fill="#124A80"/>
</svg>
