<svg width="103" height="60" viewBox="0 0 103 60" fill="none" xmlns="http://www.w3.org/2000/svg">
<path d="M15.0403 26.7506V39.7484C15.0403 45.266 12.0153 47.2698 7.27452 47.2698C2.69588 47.2698 0 45.1039 0 39.7484V26.4239C0 21.3976 3.10728 19.2292 7.43907 19.2292C11.7709 19.2292 15.0403 21.4363 15.0403 26.7506ZM6.4977 25.9738V40.5252C6.4977 41.5465 6.78326 42.1612 7.4778 42.1612C8.09006 42.1612 8.4579 41.6288 8.4579 40.5252V25.9326C8.4579 24.7057 8.17234 24.3379 7.43666 24.3379C6.8244 24.3403 6.4977 24.7468 6.4977 25.9738Z" fill="#124A80"/>
<path d="M15.7761 31.0437C15.7761 28.101 15.735 25.3616 15.6938 24.8316H21.9471C22.0705 25.5261 22.1117 26.0585 22.1504 26.5474C22.7627 25.7294 24.0307 24.5049 26.3612 24.5049C29.6718 24.5049 30.7341 26.7531 30.7341 29.9402V46.8608H24.2364V31.4914C24.2364 30.7969 24.1542 29.8966 23.3362 29.8966C22.6005 29.8966 22.2738 30.3468 22.2738 31.6536V46.8584H15.7761V31.0437Z" fill="#124A80"/>
<path d="M37.8876 37.3381V40.6898C37.8876 41.8345 38.132 42.2846 38.7878 42.2846C39.4824 42.2846 39.8091 41.9168 39.8091 40.5688V39.3419H46.0624V40.0364C46.0624 44.2472 44.3877 47.2311 38.6233 47.2311C33.3501 47.2311 31.3076 44.6974 31.3076 40.0364V31.6584C31.3076 26.7942 34.3738 24.5049 38.7467 24.5049C43.0374 24.5049 46.1035 26.5474 46.1035 31.6584C46.1035 33.2532 46.1035 35.9103 46.1035 37.3406H37.8876V37.3381ZM39.7679 33.2919V31.0437C39.7679 29.9402 39.6445 29.2868 38.829 29.2868C38.1756 29.2868 37.89 29.8991 37.89 31.0437V33.2919H39.7679Z" fill="#124A80"/>
<path d="M61.5553 36.7646V38.9305C61.5553 43.1413 60.655 47.2698 53.9516 47.2698C50.3144 47.2698 46.7158 46.0017 46.7158 39.504V26.7917C46.7158 20.9886 49.903 19.2292 54.1138 19.2292C60.776 19.2292 61.5528 23.6845 61.5528 26.7506V29.2843H54.9729V26.0561C54.9729 24.9525 54.8906 24.2991 54.1138 24.2991C53.3781 24.2991 53.2135 24.8315 53.2135 26.0561V40.322C53.2135 41.6699 53.3781 42.1612 54.0315 42.1612C54.7672 42.1612 54.9704 41.6699 54.9704 40.1985V36.7646H61.5553Z" fill="#124A80"/>
<path d="M76.719 41.2198C76.719 44.286 76.8013 45.7573 76.9223 46.8608H70.7101C70.5069 46.5341 70.3834 45.554 70.3423 45.1451C69.3622 46.6987 67.8908 47.1488 66.3783 47.1488C62.9855 47.1488 61.6787 44.1238 61.6787 40.6487V40.1986C61.6787 34.3954 65.5217 33.0451 69.8123 33.0451C70.0156 33.0451 70.0156 33.0451 70.139 33.0451V30.5936C70.139 29.4078 69.8535 29.1222 69.2799 29.1222C68.7064 29.1222 68.4208 29.4901 68.4208 30.7969V31.6971H62.3297V31.126C62.3297 26.2207 64.9868 24.5049 69.6042 24.5049C73.936 24.5049 76.7166 26.0997 76.7166 30.308V41.2198H76.719ZM70.139 37.1736C69.9745 37.1736 69.9358 37.1736 69.8535 37.1736C68.7911 37.1736 68.1788 37.9093 68.1788 39.625V39.7896C68.1788 41.4642 68.5878 41.9144 69.2001 41.9144C69.8946 41.9144 70.139 41.3021 70.139 40.1986V37.1736Z" fill="#124A80"/>
<path d="M77.4543 32.3505C77.4543 28.4277 77.4132 25.9738 77.3721 24.8291H83.6253C83.7076 25.4027 83.8286 26.7506 83.8286 27.5686C84.4409 25.8528 85.8735 24.5436 87.8749 24.5024V32.0649C85.0556 32.0649 83.952 32.7183 83.952 34.8044V46.8632H77.4543V32.3505Z" fill="#124A80"/>
<path d="M102.917 18.4138V40.8133C102.917 43.1849 102.959 45.7598 103 46.8633H96.9086C96.8263 46.3309 96.744 45.6775 96.7053 44.983C95.6018 46.7399 94.3337 47.2312 92.4945 47.2312C89.9197 47.2312 87.957 45.4331 87.957 41.019V30.9639C87.957 27.5711 89.0605 24.505 92.9446 24.505C94.4571 24.505 95.8462 25.0374 96.4198 26.1409V18.4162H102.917V18.4138ZM94.4571 31.5326V40.2785C94.4571 41.2175 94.7427 41.8321 95.4372 41.8321C96.0495 41.8321 96.4173 41.2586 96.4173 40.2374V31.5302C96.4173 30.3033 96.1729 29.8943 95.4372 29.8943C94.825 29.8991 94.4571 30.3081 94.4571 31.5326Z" fill="#124A80"/>
<path d="M30.238 6.6792C30.2501 5.51276 30.3154 4.74078 31.8642 4.6101C38.2893 4.07286 44.5111 2.5168 50.6095 0.450124C50.8491 0.367844 51.1685 0.3509 51.2266 0H52.2236C52.2164 5.84672 52.2067 11.6959 52.1994 17.5426C48.1508 18.1089 45.6824 20.5627 45.058 24.6259C43.7851 23.5781 42.1056 22.9368 40.0656 22.748C40.0607 19.527 40.0535 16.3035 40.0438 13.0825C40.0365 10.1035 38.2264 8.41676 35.2062 8.38046C34.0979 8.36594 32.9871 8.33932 31.8811 8.38772C30.6397 8.44338 30.2283 7.86258 30.238 6.6792Z" fill="#EB6A2B"/>
<path d="M58.8952 59.9265C50.3575 59.9119 41.8221 59.895 33.2868 59.9434C32.0865 59.9482 31.5662 59.6651 31.6194 58.3873C31.6702 57.2039 31.5759 56.294 33.3062 56.2505C37.3839 56.1513 40.0217 53.4312 40.0386 49.3438C40.0386 49.2228 40.0386 49.1018 40.041 48.9808C42.4586 48.7582 44.9294 47.8991 46.4322 45.6509C47.5188 47.3255 49.3096 48.6057 52.1749 48.976V49.218C52.1821 53.8377 54.3747 56.3158 58.9436 56.4658C60.7538 56.5263 60.4803 57.4944 60.5675 58.61C60.6788 60.0063 59.8414 59.9265 58.8952 59.9265Z" fill="#EB6A2B"/>
</svg>
