<?xml version="1.0" standalone="no"?>
<!DOCTYPE svg PUBLIC "-//W3C//DTD SVG 20010904//EN"
 "http://www.w3.org/TR/2001/REC-SVG-20010904/DTD/svg10.dtd">
<svg version="1.0" xmlns="http://www.w3.org/2000/svg"
 width="250.000000pt" height="130.000000pt" viewBox="0 0 250.000000 130.000000"
 preserveAspectRatio="xMidYMid meet">

<g transform="translate(0.000000,130.000000) scale(0.100000,-0.100000)"
fill="#000000" stroke="none">
<path d="M1980 993 c-16 -20 -19 -34 -14 -53 4 -14 8 -37 8 -52 1 -24 2 -25
18 -11 24 22 41 78 33 113 -8 37 -18 38 -45 3z"/>
<path d="M1849 935 c-22 -12 -86 -111 -77 -120 2 -2 37 0 77 6 99 12 134 44
112 103 -9 22 -17 26 -48 26 -21 -1 -49 -7 -64 -15z"/>
<path d="M1597 443 c-12 -11 -8 -138 5 -151 8 -8 46 -12 105 -12 l92 0 10 38
c13 46 13 48 0 95 l-10 37 -98 0 c-54 0 -101 -3 -104 -7z m103 -73 c0 -49 -1
-50 -29 -50 -35 0 -45 12 -37 46 4 15 14 24 26 24 11 0 20 7 20 15 0 8 5 15
10 15 6 0 10 -22 10 -50z m85 -15 c0 -27 -3 -30 -30 -30 -21 0 -31 5 -33 18
-6 33 6 49 35 45 24 -3 28 -8 28 -33z"/>
<path d="M1656 362 c-3 -6 -1 -14 5 -17 15 -10 25 3 12 16 -7 7 -13 7 -17 1z"/>
<path d="M1747 363 c-12 -11 -8 -23 8 -23 8 0 15 7 15 15 0 16 -12 20 -23 8z"/>
<path d="M1833 409 c7 -28 7 -55 0 -85 l-10 -44 246 0 c179 0 250 3 259 12 12
12 17 114 6 142 -5 14 -38 16 -259 16 l-253 0 11 -41z m95 -26 l10 -28 11 28
c18 45 41 35 41 -18 0 -45 -19 -66 -21 -22 l0 22 -11 -22 c-14 -30 -24 -29
-42 5 l-15 27 -1 -27 c0 -16 -4 -28 -10 -28 -5 0 -10 20 -10 45 0 38 3 45 19
45 12 0 23 -10 29 -27z m173 6 c18 -34 -3 -69 -41 -69 -38 0 -59 35 -41 69 16
29 66 29 82 0z m92 6 c4 -8 2 -17 -3 -20 -6 -4 -6 -14 1 -26 16 -31 0 -37 -21
-9 l-20 25 0 -22 c0 -13 -4 -23 -10 -23 -5 0 -10 20 -10 45 0 43 1 45 29 45
16 0 31 -6 34 -15z m82 5 c-4 -6 -10 -8 -15 -5 -5 3 -11 1 -15 -5 -3 -5 1 -10
9 -10 9 0 16 -4 16 -10 0 -5 -7 -10 -15 -10 -8 0 -15 -4 -15 -10 0 -5 6 -10
14 -10 8 0 18 -4 21 -10 4 -6 -7 -10 -24 -10 -30 0 -31 1 -31 45 0 44 1 45 31
45 18 0 28 -4 24 -10z"/>
<path d="M2040 365 c0 -18 5 -25 20 -25 15 0 20 7 20 25 0 18 -5 25 -20 25
-15 0 -20 -7 -20 -25z"/>
<path d="M2150 386 c0 -9 5 -16 10 -16 6 0 10 4 10 9 0 6 -4 13 -10 16 -5 3
-10 -1 -10 -9z"/>
</g>
</svg>
