<svg width="103" height="60" viewBox="0 0 103 60" fill="none" xmlns="http://www.w3.org/2000/svg">
<path d="M15.0403 26.7506V39.7484C15.0403 45.266 12.0153 47.2698 7.27452 47.2698C2.69588 47.2698 0 45.1039 0 39.7484V26.4239C0 21.3976 3.10728 19.2292 7.43907 19.2292C11.7709 19.2292 15.0403 21.4363 15.0403 26.7506ZM6.4977 25.9738V40.5252C6.4977 41.5465 6.78326 42.1612 7.4778 42.1612C8.09006 42.1612 8.4579 41.6288 8.4579 40.5252V25.9326C8.4579 24.7057 8.17234 24.3379 7.43666 24.3379C6.8244 24.3403 6.4977 24.7468 6.4977 25.9738Z" fill="white"/>
<path d="M15.776 31.0437C15.776 28.101 15.7349 25.3616 15.6937 24.8316H21.947C22.0704 25.5261 22.1116 26.0585 22.1503 26.5474C22.7625 25.7294 24.0306 24.5049 26.3611 24.5049C29.6716 24.5049 30.734 26.7531 30.734 29.9402V46.8608H24.2363V31.4914C24.2363 30.7969 24.154 29.8966 23.3361 29.8966C22.6004 29.8966 22.2737 30.3468 22.2737 31.6536V46.8584H15.776V31.0437Z" fill="white"/>
<path d="M37.8875 37.3381V40.6898C37.8875 41.8345 38.132 42.2846 38.7878 42.2846C39.4823 42.2846 39.809 41.9168 39.809 40.5688V39.3419H46.0623V40.0364C46.0623 44.2472 44.3877 47.2311 38.6232 47.2311C33.35 47.2311 31.3076 44.6974 31.3076 40.0364V31.6584C31.3076 26.7942 34.3737 24.5049 38.7466 24.5049C43.0373 24.5049 46.1034 26.5474 46.1034 31.6584C46.1034 33.2532 46.1034 35.9103 46.1034 37.3406H37.8875V37.3381ZM39.7679 33.2919V31.0437C39.7679 29.9402 39.6445 29.2868 38.8289 29.2868C38.1755 29.2868 37.89 29.8991 37.89 31.0437V33.2919H39.7679Z" fill="white"/>
<path d="M61.5551 36.7646V38.9305C61.5551 43.1413 60.6549 47.2698 53.9515 47.2698C50.3142 47.2698 46.7157 46.0017 46.7157 39.504V26.7917C46.7157 20.9886 49.9028 19.2292 54.1136 19.2292C60.7759 19.2292 61.5527 23.6845 61.5527 26.7506V29.2843H54.9727V26.0561C54.9727 24.9525 54.8905 24.2991 54.1136 24.2991C53.378 24.2991 53.2134 24.8315 53.2134 26.0561V40.322C53.2134 41.6699 53.378 42.1612 54.0314 42.1612C54.767 42.1612 54.9703 41.6699 54.9703 40.1985V36.7646H61.5551Z" fill="white"/>
<path d="M76.7188 41.2198C76.7188 44.286 76.8011 45.7573 76.9221 46.8608H70.71C70.5067 46.5341 70.3833 45.554 70.3421 45.1451C69.362 46.6987 67.8907 47.1488 66.3782 47.1488C62.9853 47.1488 61.6785 44.1238 61.6785 40.6487V40.1986C61.6785 34.3954 65.5215 33.0451 69.8121 33.0451C70.0154 33.0451 70.0154 33.0451 70.1389 33.0451V30.5936C70.1389 29.4078 69.8533 29.1222 69.2798 29.1222C68.7062 29.1222 68.4206 29.4901 68.4206 30.7969V31.6971H62.3295V31.126C62.3295 26.2207 64.9867 24.5049 69.604 24.5049C73.9358 24.5049 76.7164 26.0997 76.7164 30.308V41.2198H76.7188ZM70.1389 37.1736C69.9743 37.1736 69.9356 37.1736 69.8533 37.1736C68.7909 37.1736 68.1786 37.9093 68.1786 39.625V39.7896C68.1786 41.4642 68.5876 41.9144 69.1999 41.9144C69.8944 41.9144 70.1389 41.3021 70.1389 40.1986V37.1736Z" fill="white"/>
<path d="M77.4545 32.3505C77.4545 28.4277 77.4134 25.9738 77.3723 24.8291H83.6255C83.7078 25.4027 83.8288 26.7506 83.8288 27.5686C84.4411 25.8528 85.8737 24.5436 87.875 24.5024V32.0649C85.0557 32.0649 83.9522 32.7183 83.9522 34.8044V46.8632H77.4545V32.3505Z" fill="white"/>
<path d="M102.918 18.4138V40.8133C102.918 43.1849 102.959 45.7598 103 46.8633H96.9088C96.8266 46.3309 96.7443 45.6775 96.7056 44.983C95.602 46.7399 94.334 47.2312 92.4948 47.2312C89.9199 47.2312 87.9573 45.4331 87.9573 41.019V30.9639C87.9573 27.5711 89.0608 24.505 92.9449 24.505C94.4574 24.505 95.8465 25.0374 96.42 26.1409V18.4162H102.918V18.4138ZM94.4574 31.5326V40.2785C94.4574 41.2175 94.7429 41.8321 95.4375 41.8321C96.0497 41.8321 96.4176 41.2586 96.4176 40.2374V31.5302C96.4176 30.3033 96.1732 29.8943 95.4375 29.8943C94.8252 29.8991 94.4574 30.3081 94.4574 31.5326Z" fill="white"/>
<path d="M30.2378 6.6792C30.2499 5.51276 30.3153 4.74078 31.8641 4.6101C38.2892 4.07286 44.511 2.5168 50.6094 0.450124C50.849 0.367844 51.1684 0.3509 51.2265 0H52.2235C52.2163 5.84672 52.2066 11.6959 52.1993 17.5426C48.1507 18.1089 45.6823 20.5627 45.0579 24.6259C43.785 23.5781 42.1055 22.9368 40.0654 22.748C40.0606 19.527 40.0534 16.3035 40.0437 13.0825C40.0364 10.1035 38.2263 8.41676 35.2061 8.38046C34.0977 8.36594 32.987 8.33932 31.881 8.38772C30.6396 8.44338 30.2282 7.86258 30.2378 6.6792Z" fill="white"/>
<path d="M58.8953 59.9265C50.3576 59.9119 41.8223 59.895 33.2869 59.9434C32.0866 59.9482 31.5663 59.6651 31.6195 58.3873C31.6704 57.2039 31.576 56.294 33.3063 56.2505C37.384 56.1513 40.0218 53.4312 40.0387 49.3438C40.0387 49.2228 40.0387 49.1018 40.0411 48.9808C42.4587 48.7582 44.9295 47.8991 46.4324 45.6509C47.5189 47.3255 49.3097 48.6057 52.175 48.976V49.218C52.1823 53.8377 54.3748 56.3158 58.9438 56.4658C60.7539 56.5263 60.4805 57.4944 60.5676 58.61C60.6789 60.0063 59.8416 59.9265 58.8953 59.9265Z" fill="white"/>
</svg>
