<svg width="107" height="120" viewBox="0 0 107 120" fill="none" xmlns="http://www.w3.org/2000/svg">
<path d="M72.7595 119.84C65.9875 119.84 59.3676 117.832 53.7368 114.07C48.1061 110.307 43.7175 104.96 41.1259 98.7031C38.5344 92.4465 37.8563 85.562 39.1775 78.9201C40.4986 72.2782 43.7597 66.1772 48.5482 61.3887C53.3368 56.6001 59.4377 53.3391 66.0796 52.0179C72.7216 50.6968 79.6061 51.3748 85.8626 53.9664C92.1192 56.5579 97.4667 60.9465 101.229 66.5773C104.991 72.208 107 78.828 107 85.6C107 94.681 103.392 103.39 96.9709 109.811C90.5496 116.233 81.8406 119.84 72.7595 119.84ZM72.7595 59.92C67.6805 59.92 62.7156 61.4261 58.4925 64.2479C54.2694 67.0696 50.978 71.0803 49.0343 75.7727C47.0907 80.4651 46.5821 85.6285 47.573 90.6099C48.5638 95.5913 51.0096 100.167 54.601 103.758C58.1924 107.35 62.7682 109.796 67.7496 110.787C72.7311 111.777 77.8944 111.269 82.5868 109.325C87.2793 107.382 91.2899 104.09 94.1117 99.867C96.9334 95.644 98.4395 90.679 98.4395 85.6C98.4395 78.7892 95.734 72.2574 90.918 67.4415C86.1021 62.6256 79.5703 59.92 72.7595 59.92Z" fill="#EB6A2B"/>
<path d="M79.5657 98.44L68.4805 87.3548V68.48H77.0405V83.8452L85.6005 92.4052L79.5657 98.44Z" fill="#EB6A2B"/>
<path d="M102.72 17.12C102.72 14.8497 101.818 12.6725 100.213 11.0672C98.6075 9.46185 96.4302 8.56 94.16 8.56H77.04V0H68.48V8.56H34.24V0H25.68V8.56H8.56C6.28975 8.56 4.11248 9.46185 2.50717 11.0672C0.901854 12.6725 0 14.8497 0 17.12V102.72C0 104.99 0.901854 107.168 2.50717 108.773C4.11248 110.378 6.28975 111.28 8.56 111.28H25.68V102.72H8.56V17.12H25.68V25.68H34.24V17.12H68.48V25.68H77.04V17.12H94.16V42.8H102.72V17.12Z" fill="#124A80"/>
</svg>
