<?xml version="1.0" standalone="no"?>
<!DOCTYPE svg PUBLIC "-//W3C//DTD SVG 20010904//EN"
 "http://www.w3.org/TR/2001/REC-SVG-20010904/DTD/svg10.dtd">
<svg version="1.0" xmlns="http://www.w3.org/2000/svg"
 width="680.000000pt" height="365.000000pt" viewBox="0 0 680.000000 365.000000"
 preserveAspectRatio="xMidYMid meet">

<g transform="translate(0.000000,365.000000) scale(0.100000,-0.100000)"
fill="#000000" stroke="none">
<path d="M5531 2588 c-5 -13 -43 -117 -85 -233 -42 -115 -99 -271 -126 -345
-191 -522 -280 -772 -280 -784 0 -20 82 -2 158 35 110 54 103 39 356 734 41
116 109 301 149 413 l74 202 -119 0 c-114 0 -119 -1 -127 -22z"/>
<path d="M2201 2554 c0 -11 3 -14 6 -6 3 7 2 16 -1 19 -3 4 -6 -2 -5 -13z"/>
<path d="M3110 2183 c-53 -9 -157 -46 -206 -74 -66 -37 -154 -131 -189 -199
-18 -35 -29 -77 -33 -117 -5 -60 -4 -63 29 -96 22 -22 67 -46 131 -71 53 -21
103 -45 112 -55 43 -48 -1 -133 -91 -178 -55 -27 -66 -28 -218 -31 l-161 -4
-31 -61 c-18 -33 -30 -64 -28 -67 10 -16 146 -35 250 -35 191 1 321 51 440
170 111 111 159 237 120 318 -21 44 -45 61 -159 106 -58 24 -96 45 -109 63
-20 26 -20 27 0 65 12 23 39 50 68 68 46 28 56 30 184 36 86 4 152 12 179 22
48 18 132 73 132 87 0 35 -300 73 -420 53z"/>
<path d="M3938 2171 c-76 -25 -128 -56 -218 -131 -77 -65 -158 -110 -198 -110
-33 0 -76 -25 -96 -56 -20 -29 -246 -638 -246 -661 0 -2 53 -3 118 -3 l118 0
36 103 c153 430 187 509 253 590 80 99 208 138 272 83 43 -37 36 -90 -32 -276
-88 -242 -175 -486 -175 -494 0 -3 52 -5 116 -4 l116 3 28 75 c16 41 59 158
95 260 105 291 169 394 277 440 66 28 142 24 170 -10 38 -47 24 -102 -146
-564 -36 -99 -66 -185 -66 -193 0 -10 25 -13 114 -13 l113 0 67 183 c190 513
196 533 196 627 0 112 -48 159 -170 168 -121 8 -251 -36 -342 -117 -53 -47
-68 -51 -68 -17 0 32 -39 86 -79 110 -49 29 -177 32 -253 7z"/>
<path d="M6007 2175 c-112 -28 -208 -88 -305 -190 -74 -77 -98 -111 -141 -196
-79 -160 -108 -303 -81 -401 15 -52 68 -119 117 -146 121 -67 371 -65 543 4
34 14 46 26 61 61 10 25 19 47 19 49 0 2 -75 4 -167 4 -188 1 -242 9 -291 47
-55 41 -77 122 -52 187 l10 26 334 0 335 0 25 79 c38 121 52 233 36 305 -15
74 -69 137 -138 161 -65 24 -230 29 -305 10z m170 -175 c49 -29 67 -72 59
-143 -3 -32 -8 -63 -12 -68 -5 -9 -444 -13 -444 -4 0 17 46 91 76 125 65 72
144 109 234 110 38 0 65 -6 87 -20z"/>
<path d="M5035 2158 c-22 -63 -150 -411 -207 -562 -39 -105 -83 -226 -98 -270
-15 -45 -31 -89 -35 -98 -7 -17 3 -18 113 -18 l119 0 46 128 c63 177 189 521
248 680 27 73 49 137 49 142 0 16 -230 13 -235 -2z"/>
<path d="M522 2010 c0 -14 2 -19 5 -12 2 6 2 18 0 25 -3 6 -5 1 -5 -13z"/>
<path d="M2233 1968 c3 -40 2 -58 -6 -58 -7 0 -6 -5 3 -11 12 -9 12 -10 -4 -5
-11 4 -23 1 -28 -6 -14 -22 -9 -28 23 -28 l31 0 -6 -92 c-8 -119 -15 -155 -27
-137 -12 19 -11 32 1 24 6 -3 10 4 10 16 0 17 -5 20 -25 17 -14 -3 -28 -1 -31
3 -3 5 -10 9 -17 9 -6 0 -2 -7 9 -15 10 -8 15 -15 11 -15 -4 0 4 -11 18 -25
14 -14 25 -36 25 -49 0 -20 -4 -22 -26 -18 -24 4 -25 3 -18 -33 4 -25 3 -40
-5 -45 -8 -4 -10 -17 -6 -33 12 -48 29 -22 68 108 19 60 22 95 22 247 0 136
-3 180 -14 190 -11 11 -12 4 -8 -44z m-39 -414 c3 -8 2 -12 -4 -9 -6 3 -10 10
-10 16 0 14 7 11 14 -7z"/>
<path d="M511 1953 c0 -17 4 -35 9 -38 6 -3 10 -19 10 -36 0 -30 23 -41 33
-15 11 27 -9 86 -28 86 -7 0 -16 8 -18 18 -3 9 -5 3 -6 -15z"/>
<path d="M505 1780 c2 -106 7 -138 31 -207 17 -50 33 -83 42 -83 10 0 9 9 -6
38 -33 62 -50 115 -50 160 -1 24 -4 57 -7 74 -6 27 -5 29 13 19 22 -12 32 -67
21 -118 -3 -16 -3 -38 1 -49 6 -16 9 -13 16 16 4 19 9 42 9 50 0 8 3 24 7 35
3 11 9 37 13 58 4 25 10 35 18 31 7 -4 3 2 -7 14 -25 29 -38 28 -30 -3 7 -29
2 -31 -36 -8 -23 13 -30 26 -34 57 -2 23 -3 -15 -1 -84z"/>
<path d="M2149 1792 c-9 -11 -22 -21 -28 -23 -6 -2 -14 -21 -18 -42 -4 -30 -2
-37 10 -37 9 0 19 5 23 12 5 7 3 8 -5 4 -22 -14 -8 27 17 51 13 12 22 29 20
38 -3 14 -5 13 -19 -3z"/>
<path d="M600 1758 c0 -19 2 -20 10 -8 13 19 13 30 0 30 -5 0 -10 -10 -10 -22z"/>
<path d="M620 1750 c0 -5 7 -10 16 -10 8 0 12 5 9 10 -3 6 -10 10 -16 10 -5 0
-9 -4 -9 -10z"/>
<path d="M625 1700 c-3 -5 4 -20 16 -32 l21 -23 -13 25 c-7 14 -12 28 -11 33
3 10 -6 9 -13 -3z"/>
<path d="M660 1698 c0 -9 7 -19 16 -22 25 -10 27 -1 4 19 -17 15 -20 16 -20 3z"/>
<path d="M2041 1668 c-29 -30 -29 -33 -11 -36 11 -2 20 -9 20 -17 0 -9 -11
-12 -39 -8 -35 5 -41 2 -62 -26 -25 -33 -33 -61 -18 -61 5 0 9 8 9 19 0 10 6
24 14 30 11 10 15 8 19 -6 4 -15 5 -14 6 3 1 19 7 22 47 22 26 1 49 4 52 6 8
9 10 106 1 106 -4 0 -22 -15 -38 -32z"/>
<path d="M612 1631 c7 -9 14 -18 15 -20 2 -2 3 5 3 16 0 11 -7 20 -15 20 -12
0 -12 -3 -3 -16z"/>
<path d="M683 1620 c0 -26 4 -30 29 -31 58 -3 54 3 57 -76 1 -20 6 -23 41 -23
22 0 40 5 40 10 0 6 -6 10 -12 11 -7 1 -22 2 -33 3 -16 1 -20 8 -21 39 0 20 4
37 10 37 6 0 3 7 -8 15 -11 8 -32 12 -52 9 -32 -4 -39 2 -35 29 0 4 -3 7 -7 7
-5 0 -9 -13 -9 -30z"/>
<path d="M661 1624 c0 -11 3 -14 6 -6 3 7 2 16 -1 19 -3 4 -6 -2 -5 -13z"/>
<path d="M710 1636 c0 -2 7 -6 15 -10 8 -3 15 -1 15 4 0 6 -7 10 -15 10 -8 0
-15 -2 -15 -4z"/>
<path d="M2160 1619 c0 -24 23 -21 28 4 2 10 -3 17 -12 17 -10 0 -16 -9 -16
-21z"/>
<path d="M572 1586 c-3 -31 7 -68 17 -62 5 3 6 18 3 32 -3 19 -1 25 7 20 6 -4
11 -3 11 1 0 5 -8 13 -18 19 -15 10 -18 8 -20 -10z"/>
<path d="M642 1590 c0 -14 2 -19 5 -12 2 6 2 18 0 25 -3 6 -5 1 -5 -13z"/>
<path d="M2106 1601 c-3 -5 1 -11 9 -14 9 -4 12 -1 8 9 -6 16 -10 17 -17 5z"/>
<path d="M797 1540 c-3 -13 0 -20 10 -20 8 0 11 4 8 10 -3 6 1 7 9 4 11 -4 16
0 16 10 0 23 -37 20 -43 -4z"/>
<path d="M855 1530 c-3 -5 -1 -10 4 -10 6 0 11 5 11 10 0 6 -2 10 -4 10 -3 0
-8 -4 -11 -10z"/>
<path d="M1897 1533 c-13 -13 -7 -43 9 -43 14 0 15 -2 3 -17 -13 -16 -13 -16
11 0 13 9 34 18 45 18 19 1 19 2 1 6 -15 4 -16 7 -5 14 10 6 4 8 -16 6 -20 -1
-29 2 -27 11 2 13 -10 16 -21 5z"/>
<path d="M867 1504 c-12 -13 -8 -26 7 -21 8 3 20 -1 26 -9 10 -11 10 -14 -2
-14 -21 0 -50 -39 -43 -60 3 -10 13 -21 22 -25 16 -5 16 -5 0 12 -10 12 -13
23 -7 33 7 11 23 6 89 -28 94 -49 111 -53 50 -12 -24 16 -50 30 -56 30 -24 0
-13 18 17 28 34 12 32 31 -4 48 -20 9 -23 9 -19 -2 3 -8 1 -14 -5 -14 -19 0
-42 12 -42 22 0 6 7 4 17 -3 14 -12 16 -12 11 1 -5 16 -49 26 -61 14z"/>
<path d="M601 1484 c0 -11 3 -14 6 -6 3 7 2 16 -1 19 -3 4 -6 -2 -5 -13z"/>
<path d="M1789 1474 c-17 -12 -26 -25 -21 -28 13 -8 72 4 72 14 0 5 2 15 5 23
9 21 -22 17 -56 -9z"/>
<path d="M640 1475 c0 -8 2 -15 4 -15 2 0 6 7 10 15 3 8 1 15 -4 15 -6 0 -10
-7 -10 -15z"/>
<path d="M2079 1473 c-13 -17 -13 -17 6 -3 11 8 22 16 24 17 2 2 0 3 -6 3 -6
0 -17 -8 -24 -17z"/>
<path d="M570 1475 c0 -18 81 -159 117 -203 71 -87 192 -188 285 -239 26 -14
50 -35 54 -47 25 -81 162 -136 344 -136 161 0 307 50 329 111 7 20 26 36 68
57 153 78 316 231 383 362 12 23 12 24 -3 11 -10 -7 -17 -20 -17 -27 0 -8 -4
-14 -8 -14 -5 0 -13 -8 -18 -19 -23 -48 -94 -125 -170 -186 -35 -28 -37 -28
-32 -8 4 13 1 24 -7 27 -18 7 -27 -5 -15 -19 10 -12 -4 -22 -55 -41 -18 -6
-18 -8 -2 -11 16 -4 25 -23 10 -23 -37 1 -36 45 1 60 l21 9 -22 0 c-24 1 -73
-39 -73 -58 0 -7 3 -10 8 -8 4 3 13 -1 20 -9 10 -11 8 -15 -7 -24 -11 -5 -27
-10 -35 -10 -9 0 -16 -5 -16 -12 0 -6 -3 -8 -7 -5 -3 4 -12 2 -20 -5 -11 -9
-12 -7 -7 7 5 13 3 16 -7 13 -8 -3 -22 1 -31 9 -11 10 -26 13 -43 9 -37 -9
-30 -25 10 -22 31 3 34 1 23 -12 -11 -13 -10 -15 4 -9 10 3 20 2 23 -3 4 -6
-6 -15 -21 -20 -22 -9 -29 -7 -44 10 -18 21 -60 28 -60 9 0 -6 -7 -9 -14 -6
-9 4 -17 -2 -21 -13 -5 -16 -15 -19 -56 -18 -29 0 -49 5 -49 12 0 8 -2 8 -8 0
-6 -10 -26 -11 -65 -5 -5 0 -6 5 -3 9 3 5 32 8 65 6 44 -2 61 2 65 12 4 11 -8
14 -63 14 -37 0 -97 2 -132 5 -35 3 -59 3 -52 -1 18 -8 4 -34 -15 -27 -11 5
-14 2 -9 -9 4 -12 1 -14 -14 -11 -21 6 -25 18 -9 28 17 10 11 25 -9 25 -11 0
-23 5 -27 12 -5 7 -2 8 7 3 8 -5 11 -4 6 1 -5 5 -13 10 -18 10 -5 1 -10 2 -11
4 -14 11 -47 3 -51 -12 -4 -12 0 -18 12 -18 22 0 58 -26 49 -35 -9 -9 -78 14
-78 26 0 6 -4 8 -8 5 -4 -2 -14 -1 -21 4 -11 6 -9 10 8 19 29 16 26 44 -6 58
-24 10 -45 11 -88 4 -5 -1 -1 -8 9 -16 11 -8 24 -11 30 -7 6 5 25 5 41 2 27
-6 28 -8 10 -15 -11 -5 -23 -13 -27 -19 -5 -7 -8 -4 -8 7 0 14 -5 17 -19 12
-26 -8 -70 33 -50 46 15 9 28 12 44 10 6 -1 -7 14 -29 34 -38 35 -53 44 -41
25 8 -14 -4 -70 -15 -70 -5 0 -17 8 -27 18 -10 10 -39 35 -65 55 -27 21 -48
43 -48 50 0 6 14 -2 30 -18 24 -23 33 -27 39 -16 5 8 8 19 7 25 -2 13 -21 20
-21 7 0 -5 -4 -13 -9 -18 -5 -5 -6 -2 -1 6 5 9 4 12 -3 7 -6 -3 -13 -2 -17 4
-3 5 -1 10 4 10 6 0 11 9 11 20 0 11 -7 20 -15 20 -8 0 -15 -6 -15 -14 0 -17
-25 -15 -42 2 -10 10 -8 14 10 18 13 4 22 14 22 26 0 16 -3 18 -13 9 -8 -6
-17 -8 -21 -4 -4 4 -11 1 -17 -7 -7 -12 -10 -11 -15 7 -4 13 -10 20 -15 17 -5
-3 -9 4 -9 16 0 11 6 23 14 26 19 7 8 53 -12 49 -10 -2 -21 -4 -25 -4 -5 -1
-5 -5 -2 -11 3 -5 1 -10 -4 -10 -10 0 -15 17 -14 48 1 7 -1 11 -5 8 -3 -3 -11
2 -18 12 -7 9 -13 13 -14 7z m737 -499 c3 -3 2 -6 -3 -7 -5 0 -21 -3 -36 -5
-20 -3 -28 0 -28 9 0 15 53 17 67 3z m273 10 c0 -3 -4 -8 -10 -11 -5 -3 -10
-1 -10 4 0 6 5 11 10 11 6 0 10 -2 10 -4z m-252 -43 c-10 -2 -28 -2 -40 0 -13
2 -5 4 17 4 22 1 32 -1 23 -4z m159 1 c-3 -3 -12 -4 -19 -1 -8 3 -5 6 6 6 11
1 17 -2 13 -5z"/>
<path d="M661 1454 c0 -11 3 -14 6 -6 3 7 2 16 -1 19 -3 4 -6 -2 -5 -13z"/>
<path d="M1845 1431 c4 -11 2 -11 -9 -2 -11 9 -15 7 -19 -10 -5 -19 -8 -20
-22 -9 -20 16 -95 25 -95 11 0 -5 -9 -7 -20 -4 -27 7 -49 -13 -43 -37 8 -30
43 -23 55 11 7 17 55 32 63 19 7 -11 -6 -20 -32 -20 -17 0 -23 -6 -23 -21 0
-12 -4 -18 -11 -13 -6 3 -15 1 -19 -6 -6 -9 -12 -8 -27 6 -27 26 -42 27 -36 4
7 -24 -13 -50 -38 -50 -10 0 -21 -5 -25 -11 -4 -7 0 -9 12 -6 11 3 45 13 77
22 34 10 68 27 82 43 14 15 25 21 25 14 0 -6 -5 -12 -12 -12 -6 0 -9 -3 -6 -6
4 -3 43 14 87 37 82 42 106 45 83 9 -17 -27 -15 -30 11 -28 27 2 33 46 9 65
-23 17 -74 13 -67 -6z"/>
<path d="M743 1415 c-3 -9 -3 -18 -1 -21 3 -3 8 4 11 16 6 23 -1 27 -10 5z"/>
<path d="M2103 1423 c-7 -2 -13 -12 -13 -21 0 -8 -7 -23 -14 -31 -10 -11 -12
-21 -5 -31 8 -13 10 -13 19 0 5 8 10 23 10 33 0 10 5 15 10 12 6 -4 10 5 10
19 0 14 -1 26 -2 25 -2 0 -9 -3 -15 -6z"/>
<path d="M1033 1413 c-7 -2 -13 -11 -13 -20 0 -8 6 -13 13 -10 6 2 20 0 30 -5
30 -15 66 -2 60 22 -4 16 -13 20 -42 19 -20 0 -42 -3 -48 -6z"/>
<path d="M1230 1348 c0 -17 4 -27 10 -23 6 4 8 10 5 14 -5 9 103 21 150 16 17
-1 43 -3 58 -4 16 0 26 -5 22 -10 -3 -5 3 -12 12 -14 10 -3 -38 -5 -107 -6
-69 0 -129 -1 -135 -2 -5 -1 -13 -1 -17 0 -5 0 -8 -6 -8 -14 0 -18 37 -20 42
-3 3 9 10 8 23 -5 14 -15 32 -18 94 -16 133 3 137 4 139 52 l3 42 -146 1 -145
1 0 -29z m97 -54 c-3 -3 -12 -4 -19 -1 -8 3 -5 6 6 6 11 1 17 -2 13 -5z"/>
<path d="M850 1363 c0 -4 5 -15 10 -23 8 -13 10 -13 10 2 0 9 -4 20 -10 23 -5
3 -10 3 -10 -2z"/>
<path d="M1060 1352 c0 -12 62 -38 115 -48 27 -5 36 -4 31 5 -4 6 -11 9 -16 6
-13 -8 -40 6 -40 21 0 10 -8 12 -30 8 -18 -4 -36 -1 -45 6 -9 7 -15 8 -15 2z"/>
<path d="M1900 1310 c0 -43 3 -50 20 -50 20 0 22 5 23 45 0 45 -4 55 -23 55
-17 0 -20 -7 -20 -50z"/>
<path d="M2010 1304 c0 -11 8 -14 27 -12 39 4 42 28 4 28 -21 0 -31 -5 -31
-16z"/>
<path d="M1970 1269 c0 -5 -3 -8 -7 -6 -5 3 -9 -6 -9 -20 -2 -29 -15 -44 -22
-24 -3 10 -6 11 -12 1 -5 -7 -3 -18 3 -25 14 -15 47 -7 47 11 0 8 6 11 15 8
12 -5 15 2 15 30 0 25 -4 36 -15 36 -8 0 -15 -5 -15 -11z"/>
<path d="M860 1230 c0 -5 5 -10 10 -10 6 0 10 5 10 10 0 6 -4 10 -10 10 -5 0
-10 -4 -10 -10z"/>
<path d="M823 1215 c0 -8 4 -15 9 -15 4 0 8 7 8 15 0 8 -4 15 -8 15 -5 0 -9
-7 -9 -15z"/>
<path d="M850 1171 c0 -30 17 -34 22 -6 4 17 1 25 -8 25 -8 0 -14 -9 -14 -19z"/>
<path d="M1855 1180 c-3 -5 -1 -10 4 -10 6 0 11 5 11 10 0 6 -2 10 -4 10 -3 0
-8 -4 -11 -10z"/>
</g>
</svg>
