<?xml version="1.0" encoding="UTF-8"?>
<svg width="16pt" height="16pt" fill="white" color="red" version="1.1" viewBox="0 0 1200 1200" xmlns="http://www.w3.org/2000/svg">
 <g>
  <path d="m264 852c0 31.824 12.645 62.348 35.148 84.852 22.504 22.504 53.027 35.148 84.852 35.148h432c31.824 0 62.348-12.645 84.852-35.148 22.504-22.504 35.148-53.027 35.148-84.852v-312c0-31.824-12.645-62.348-35.148-84.852-22.504-22.504-53.027-35.148-84.852-35.148h-168l123.36-144-54.719-48-116.64 136.68-116.64-136.68-54.719 48 123.36 144h-168c-31.824 0-62.348 12.645-84.852 35.148-22.504 22.504-35.148 53.027-35.148 84.852zm72-312c0-12.73 5.0586-24.938 14.059-33.941 9.0039-9 21.211-14.059 33.941-14.059h432c12.73 0 24.938 5.0586 33.941 14.059 9 9.0039 14.059 21.211 14.059 33.941v312c0 12.73-5.0586 24.938-14.059 33.941-9.0039 9-21.211 14.059-33.941 14.059h-432c-12.73 0-24.938-5.0586-33.941-14.059-9-9.0039-14.059-21.211-14.059-33.941z"/>
  <path d="m552 698.88 70.559 70.559v0.003906c6.75 6.7383 15.902 10.527 25.441 10.527s18.691-3.7891 25.441-10.527l120-120-50.879-50.879-94.562 94.559-70.559-70.559v-0.003906c-6.75-6.7383-15.902-10.527-25.441-10.527s-18.691 3.7891-25.441 10.527l-120 120 50.879 50.879z"/>
 </g>
</svg>
